<svg width="25" height="25" viewBox="0 0 25 25" fill="none" xmlns="http://www.w3.org/2000/svg">
<path d="M12.6006 2.59424C7.10059 2.59424 2.60059 7.08424 2.60059 12.6142C2.60059 17.6142 6.26059 21.7642 11.0406 22.5142V15.5142H8.50059V12.6142H11.0406V10.4042C11.0406 7.89424 12.5306 6.51424 14.8206 6.51424C15.9106 6.51424 17.0506 6.70424 17.0506 6.70424V9.17424H15.7906C14.5506 9.17424 14.1606 9.94424 14.1606 10.7342V12.6142H16.9406L16.4906 15.5142H14.1606V22.5142C16.517 22.1421 18.6628 20.9398 20.2105 19.1243C21.7582 17.3088 22.6059 14.9999 22.6006 12.6142C22.6006 7.08424 18.1006 2.59424 12.6006 2.59424Z" fill="black"/>
</svg>
