<svg width="25" height="25" viewBox="0 0 25 25" fill="none" xmlns="http://www.w3.org/2000/svg">
<path d="M8.68672 2.45825H17.0867C20.2867 2.45825 22.8867 5.05825 22.8867 8.25825V16.6583C22.8867 18.1965 22.2756 19.6718 21.1879 20.7595C20.1002 21.8472 18.625 22.4583 17.0867 22.4583H8.68672C5.48672 22.4583 2.88672 19.8583 2.88672 16.6583V8.25825C2.88672 6.72 3.49779 5.24474 4.5855 4.15703C5.67321 3.06932 7.14846 2.45825 8.68672 2.45825ZM8.48672 4.45825C7.53194 4.45825 6.61627 4.83754 5.94113 5.51267C5.266 6.1878 4.88672 7.10347 4.88672 8.05825V16.8583C4.88672 18.8483 6.49672 20.4583 8.48672 20.4583H17.2867C18.2415 20.4583 19.1572 20.079 19.8323 19.4038C20.5074 18.7287 20.8867 17.813 20.8867 16.8583V8.05825C20.8867 6.06825 19.2767 4.45825 17.2867 4.45825H8.48672ZM18.1367 5.95825C18.4682 5.95825 18.7862 6.08995 19.0206 6.32437C19.255 6.55879 19.3867 6.87673 19.3867 7.20825C19.3867 7.53977 19.255 7.85771 19.0206 8.09214C18.7862 8.32656 18.4682 8.45825 18.1367 8.45825C17.8052 8.45825 17.4873 8.32656 17.2528 8.09214C17.0184 7.85771 16.8867 7.53977 16.8867 7.20825C16.8867 6.87673 17.0184 6.55879 17.2528 6.32437C17.4873 6.08995 17.8052 5.95825 18.1367 5.95825ZM12.8867 7.45825C14.2128 7.45825 15.4846 7.98504 16.4223 8.92272C17.3599 9.8604 17.8867 11.1322 17.8867 12.4583C17.8867 13.7843 17.3599 15.0561 16.4223 15.9938C15.4846 16.9315 14.2128 17.4583 12.8867 17.4583C11.5606 17.4583 10.2889 16.9315 9.35118 15.9938C8.4135 15.0561 7.88672 13.7843 7.88672 12.4583C7.88672 11.1322 8.4135 9.8604 9.35118 8.92272C10.2889 7.98504 11.5606 7.45825 12.8867 7.45825ZM12.8867 9.45825C12.0911 9.45825 11.328 9.77432 10.7654 10.3369C10.2028 10.8995 9.88672 11.6626 9.88672 12.4583C9.88672 13.2539 10.2028 14.017 10.7654 14.5796C11.328 15.1422 12.0911 15.4583 12.8867 15.4583C13.6824 15.4583 14.4454 15.1422 15.008 14.5796C15.5706 14.017 15.8867 13.2539 15.8867 12.4583C15.8867 11.6626 15.5706 10.8995 15.008 10.3369C14.4454 9.77432 13.6824 9.45825 12.8867 9.45825Z" fill="black"/>
</svg>
