<svg width="25" height="25" viewBox="0 0 25 25" fill="none" xmlns="http://www.w3.org/2000/svg">
<path d="M23.3468 6.45825C22.5768 6.80825 21.7468 7.03825 20.8868 7.14825C21.7668 6.61825 22.4468 5.77825 22.7668 4.76825C21.9368 5.26825 21.0168 5.61825 20.0468 5.81825C19.2568 4.95825 18.1468 4.45825 16.8868 4.45825C14.5368 4.45825 12.6168 6.37825 12.6168 8.74825C12.6168 9.08825 12.6568 9.41825 12.7268 9.72825C9.16676 9.54825 5.99676 7.83825 3.88676 5.24825C3.51676 5.87825 3.30676 6.61825 3.30676 7.39825C3.30676 8.88825 4.05676 10.2083 5.21676 10.9583C4.50676 10.9583 3.84676 10.7583 3.26676 10.4583C3.26676 10.4583 3.26676 10.4583 3.26676 10.4883C3.26676 12.5683 4.74676 14.3083 6.70676 14.6983C6.34676 14.7983 5.96676 14.8483 5.57676 14.8483C5.30676 14.8483 5.03676 14.8183 4.77676 14.7683C5.31676 16.4583 6.88676 17.7183 8.77676 17.7483C7.31676 18.9083 5.46676 19.5883 3.44676 19.5883C3.10676 19.5883 2.76676 19.5683 2.42676 19.5283C4.32676 20.7483 6.58676 21.4583 9.00676 21.4583C16.8868 21.4583 21.2168 14.9183 21.2168 9.24825C21.2168 9.05825 21.2168 8.87825 21.2068 8.68825C22.0468 8.08825 22.7668 7.32825 23.3468 6.45825Z" fill="black"/>
</svg>
