<svg width="25" height="25" viewBox="0 0 25 25" fill="none" xmlns="http://www.w3.org/2000/svg">
<path d="M17.2467 14.4583C17.3267 13.7983 17.3867 13.1383 17.3867 12.4583C17.3867 11.7783 17.3267 11.1183 17.2467 10.4583H20.6267C20.7867 11.0983 20.8867 11.7683 20.8867 12.4583C20.8867 13.1483 20.7867 13.8183 20.6267 14.4583M15.4767 20.0183C16.0767 18.9083 16.5367 17.7083 16.8567 16.4583H19.8067C18.8467 18.1083 17.3167 19.3883 15.4767 20.0183ZM15.2267 14.4583H10.5467C10.4467 13.7983 10.3867 13.1383 10.3867 12.4583C10.3867 11.7783 10.4467 11.1083 10.5467 10.4583H15.2267C15.3167 11.1083 15.3867 11.7783 15.3867 12.4583C15.3867 13.1383 15.3167 13.7983 15.2267 14.4583ZM12.8867 20.4183C12.0567 19.2183 11.3867 17.8883 10.9767 16.4583H14.7967C14.3867 17.8883 13.7167 19.2183 12.8867 20.4183ZM8.88672 8.45825H5.96672C6.91672 6.79825 8.45672 5.51825 10.2867 4.89825C9.68672 6.00825 9.23672 7.20825 8.88672 8.45825ZM5.96672 16.4583H8.88672C9.23672 17.7083 9.68672 18.9083 10.2867 20.0183C8.45672 19.3883 6.91672 18.1083 5.96672 16.4583ZM5.14672 14.4583C4.98672 13.8183 4.88672 13.1483 4.88672 12.4583C4.88672 11.7683 4.98672 11.0983 5.14672 10.4583H8.52672C8.44672 11.1183 8.38672 11.7783 8.38672 12.4583C8.38672 13.1383 8.44672 13.7983 8.52672 14.4583M12.8867 4.48825C13.7167 5.68825 14.3867 7.02825 14.7967 8.45825H10.9767C11.3867 7.02825 12.0567 5.68825 12.8867 4.48825ZM19.8067 8.45825H16.8567C16.5367 7.20825 16.0767 6.00825 15.4767 4.89825C17.3167 5.52825 18.8467 6.79825 19.8067 8.45825ZM12.8867 2.45825C7.35672 2.45825 2.88672 6.95825 2.88672 12.4583C2.88672 15.1104 3.94029 17.654 5.81565 19.5293C6.74424 20.4579 7.84663 21.1945 9.05988 21.697C10.2731 22.1996 11.5735 22.4583 12.8867 22.4583C15.5389 22.4583 18.0824 21.4047 19.9578 19.5293C21.8332 17.654 22.8867 15.1104 22.8867 12.4583C22.8867 11.145 22.6281 9.84467 22.1255 8.63142C21.623 7.41816 20.8864 6.31577 19.9578 5.38718C19.0292 4.4586 17.9268 3.722 16.7136 3.21946C15.5003 2.71691 14.1999 2.45825 12.8867 2.45825Z" fill="black"/>
</svg>
