<svg xmlns="http://www.w3.org/2000/svg" xmlns:xlink="http://www.w3.org/1999/xlink" width="500" zoomAndPan="magnify" viewBox="0 0 375 374.999991" height="500" preserveAspectRatio="xMidYMid meet" version="1.0"><defs><g/><clipPath id="275e8eb66d"><path d="M 23 135.640625 L 125 135.640625 L 125 239.140625 L 23 239.140625 Z M 23 135.640625 " clip-rule="nonzero"/></clipPath><clipPath id="37f799f247"><path d="M 17 135.640625 L 29 135.640625 L 29 147 L 17 147 Z M 17 135.640625 " clip-rule="nonzero"/></clipPath></defs><g fill="#ffffff" fill-opacity="1"><g transform="translate(163.561624, 171.772212)"><g><path d="M 7 0 C 6.09375 0 5.035156 0.0507812 3.828125 0.15625 C 2.628906 0.257812 1.835938 0.335938 1.453125 0.390625 L 1.734375 -2.15625 C 2.828125 -2.351562 3.566406 -2.664062 3.953125 -3.09375 C 4.335938 -3.519531 4.53125 -4.226562 4.53125 -5.21875 L 4.578125 -20.28125 C 4.578125 -21 4.484375 -21.5 4.296875 -21.78125 C 4.117188 -22.0625 3.800781 -22.203125 3.34375 -22.203125 C 3.082031 -22.203125 2.820312 -22.1875 2.5625 -22.15625 C 2.3125 -22.132812 2.132812 -22.125 2.03125 -22.125 L 1.765625 -22.4375 L 2.109375 -24.75 C 2.523438 -24.75 3.273438 -24.734375 4.359375 -24.703125 C 5.453125 -24.679688 6.472656 -24.671875 7.421875 -24.671875 C 8.390625 -24.671875 9.472656 -24.695312 10.671875 -24.75 C 11.878906 -24.800781 12.726562 -24.835938 13.21875 -24.859375 C 15.851562 -24.859375 17.863281 -24.34375 19.25 -23.3125 C 20.632812 -22.289062 21.328125 -20.820312 21.328125 -18.90625 C 21.328125 -17.625 20.960938 -16.488281 20.234375 -15.5 C 19.503906 -14.519531 18.484375 -13.695312 17.171875 -13.03125 C 18.835938 -12.59375 20.160156 -11.898438 21.140625 -10.953125 C 22.128906 -10.003906 22.625 -8.785156 22.625 -7.296875 C 22.625 -5.785156 22.207031 -4.445312 21.375 -3.28125 C 20.550781 -2.113281 19.390625 -1.207031 17.890625 -0.5625 C 16.390625 0.0703125 14.648438 0.390625 12.671875 0.390625 C 12.367188 0.390625 11.945312 0.363281 11.40625 0.3125 C 10.875 0.257812 10.46875 0.21875 10.1875 0.1875 C 9.851562 0.164062 9.335938 0.128906 8.640625 0.078125 C 7.953125 0.0234375 7.40625 0 7 0 Z M 9.640625 -14.140625 C 9.953125 -14.109375 10.566406 -14.039062 11.484375 -13.9375 C 12.410156 -13.84375 13.023438 -13.796875 13.328125 -13.796875 C 13.328125 -13.742188 13.578125 -13.875 14.078125 -14.1875 C 14.578125 -14.507812 15.023438 -14.976562 15.421875 -15.59375 C 15.816406 -16.207031 16.015625 -16.988281 16.015625 -17.9375 C 16.015625 -19.25 15.578125 -20.210938 14.703125 -20.828125 C 13.835938 -21.441406 12.484375 -21.75 10.640625 -21.75 C 10.390625 -21.75 10.21875 -21.695312 10.125 -21.59375 C 10.03125 -21.488281 9.972656 -21.296875 9.953125 -21.015625 C 9.796875 -18.941406 9.691406 -16.648438 9.640625 -14.140625 Z M 9.40625 -5.109375 C 9.40625 -4.285156 9.6875 -3.703125 10.25 -3.359375 C 10.820312 -3.015625 11.757812 -2.84375 13.0625 -2.84375 C 14.320312 -2.84375 15.304688 -3.1875 16.015625 -3.875 C 16.734375 -4.570312 17.09375 -5.519531 17.09375 -6.71875 C 17.09375 -7.769531 16.753906 -8.644531 16.078125 -9.34375 C 15.398438 -10.050781 14.421875 -10.546875 13.140625 -10.828125 L 9.5625 -10.796875 Z M 9.40625 -5.109375 "/></g></g></g><g fill="#ffffff" fill-opacity="1"><g transform="translate(191.840631, 171.772212)"><g><path d="M 12.71875 0 L 12.90625 -2.265625 C 13.78125 -2.335938 14.414062 -2.421875 14.8125 -2.515625 C 15.207031 -2.609375 15.484375 -2.738281 15.640625 -2.90625 C 15.796875 -3.070312 15.875 -3.320312 15.875 -3.65625 C 15.875 -3.957031 15.804688 -4.40625 15.671875 -5 L 14.875 -7.953125 C 13.539062 -8.003906 12.359375 -8.03125 11.328125 -8.03125 C 10.867188 -8.03125 9.910156 -7.96875 8.453125 -7.84375 L 7.640625 -7.765625 L 6.6875 -4.796875 C 6.53125 -4.234375 6.453125 -3.835938 6.453125 -3.609375 C 6.453125 -3.148438 6.585938 -2.828125 6.859375 -2.640625 C 7.128906 -2.460938 7.597656 -2.375 8.265625 -2.375 L 9.90625 -2.375 L 10.109375 -2.109375 L 9.84375 0.234375 C 9.476562 0.203125 8.707031 0.15625 7.53125 0.09375 C 6.351562 0.03125 5.25 0 4.21875 0 C 3.144531 0 2.175781 0.0078125 1.3125 0.03125 C 0.457031 0.0625 -0.109375 0.0859375 -0.390625 0.109375 L -0.109375 -2.375 C 0.472656 -2.476562 0.957031 -2.722656 1.34375 -3.109375 C 1.726562 -3.492188 2.085938 -4.125 2.421875 -5 L 9.296875 -24.46875 L 15.171875 -25.09375 L 15.59375 -24.890625 C 15.976562 -23.429688 16.78125 -20.441406 18 -15.921875 C 19.21875 -11.398438 20.257812 -7.769531 21.125 -5.03125 C 21.40625 -4.113281 21.765625 -3.460938 22.203125 -3.078125 C 22.640625 -2.691406 23.296875 -2.457031 24.171875 -2.375 L 24.328125 -2.109375 L 24.046875 0.109375 C 23.710938 0.0859375 23.082031 0.0625 22.15625 0.03125 C 21.238281 0.0078125 20.304688 0 19.359375 0 C 18.003906 0 16.679688 0.0390625 15.390625 0.125 C 14.097656 0.21875 13.269531 0.28125 12.90625 0.3125 Z M 11.328125 -10.984375 C 11.609375 -10.984375 12.554688 -11.023438 14.171875 -11.109375 L 11.90625 -19.671875 L 11.40625 -19.671875 L 8.5625 -10.984375 Z M 11.328125 -10.984375 "/></g></g></g><g fill="#ffffff" fill-opacity="1"><g transform="translate(220.042802, 171.772212)"><g><path d="M 4.5 -2.265625 C 5.675781 -2.367188 6.519531 -2.519531 7.03125 -2.71875 C 7.539062 -2.925781 7.882812 -3.285156 8.0625 -3.796875 C 8.25 -4.316406 8.34375 -5.164062 8.34375 -6.34375 L 8.34375 -21.75 C 6.851562 -21.695312 5.804688 -21.566406 5.203125 -21.359375 C 4.597656 -21.160156 4.179688 -20.742188 3.953125 -20.109375 C 3.722656 -19.484375 3.519531 -18.351562 3.34375 -16.71875 L 0.1875 -16.484375 C 0.375 -18.609375 0.53125 -21.335938 0.65625 -24.671875 L 1.078125 -25.09375 L 4.875 -24.671875 L 16.875 -24.671875 L 20.75 -25.09375 L 21.171875 -24.671875 C 21.222656 -21.597656 21.347656 -18.945312 21.546875 -16.71875 L 18.40625 -16.484375 C 18.195312 -18.222656 17.984375 -19.410156 17.765625 -20.046875 C 17.546875 -20.691406 17.160156 -21.125 16.609375 -21.34375 C 16.066406 -21.5625 15.085938 -21.695312 13.671875 -21.75 C 13.546875 -19.851562 13.4375 -17.273438 13.34375 -14.015625 C 13.257812 -10.765625 13.21875 -7.8125 13.21875 -5.15625 C 13.21875 -4.207031 13.382812 -3.523438 13.71875 -3.109375 C 14.050781 -2.703125 14.585938 -2.5 15.328125 -2.5 C 15.972656 -2.5 16.648438 -2.535156 17.359375 -2.609375 L 17.515625 -2.421875 L 17.171875 0.15625 C 14.460938 0.0507812 12.257812 0 10.5625 0 C 9.226562 0 7.101562 0.078125 4.1875 0.234375 Z M 4.5 -2.265625 "/></g></g></g><g fill="#ffffff" fill-opacity="1"><g transform="translate(246.016691, 171.772212)"><g><path d="M 4.5 -2.265625 C 5.675781 -2.367188 6.519531 -2.519531 7.03125 -2.71875 C 7.539062 -2.925781 7.882812 -3.285156 8.0625 -3.796875 C 8.25 -4.316406 8.34375 -5.164062 8.34375 -6.34375 L 8.34375 -21.75 C 6.851562 -21.695312 5.804688 -21.566406 5.203125 -21.359375 C 4.597656 -21.160156 4.179688 -20.742188 3.953125 -20.109375 C 3.722656 -19.484375 3.519531 -18.351562 3.34375 -16.71875 L 0.1875 -16.484375 C 0.375 -18.609375 0.53125 -21.335938 0.65625 -24.671875 L 1.078125 -25.09375 L 4.875 -24.671875 L 16.875 -24.671875 L 20.75 -25.09375 L 21.171875 -24.671875 C 21.222656 -21.597656 21.347656 -18.945312 21.546875 -16.71875 L 18.40625 -16.484375 C 18.195312 -18.222656 17.984375 -19.410156 17.765625 -20.046875 C 17.546875 -20.691406 17.160156 -21.125 16.609375 -21.34375 C 16.066406 -21.5625 15.085938 -21.695312 13.671875 -21.75 C 13.546875 -19.851562 13.4375 -17.273438 13.34375 -14.015625 C 13.257812 -10.765625 13.21875 -7.8125 13.21875 -5.15625 C 13.21875 -4.207031 13.382812 -3.523438 13.71875 -3.109375 C 14.050781 -2.703125 14.585938 -2.5 15.328125 -2.5 C 15.972656 -2.5 16.648438 -2.535156 17.359375 -2.609375 L 17.515625 -2.421875 L 17.171875 0.15625 C 14.460938 0.0507812 12.257812 0 10.5625 0 C 9.226562 0 7.101562 0.078125 4.1875 0.234375 Z M 4.5 -2.265625 "/></g></g></g><g fill="#ffffff" fill-opacity="1"><g transform="translate(271.990585, 171.772212)"><g><path d="M 1.953125 -2.1875 C 2.929688 -2.34375 3.597656 -2.648438 3.953125 -3.109375 C 4.316406 -3.566406 4.5 -4.363281 4.5 -5.5 L 4.53125 -20.203125 C 4.53125 -21.003906 4.441406 -21.535156 4.265625 -21.796875 C 4.085938 -22.066406 3.71875 -22.203125 3.15625 -22.203125 L 1.953125 -22.171875 L 1.765625 -22.484375 L 2.078125 -24.703125 L 7.21875 -24.671875 C 7.9375 -24.671875 8.976562 -24.707031 10.34375 -24.78125 C 11.71875 -24.851562 12.625 -24.90625 13.0625 -24.9375 L 12.796875 -22.28125 C 11.921875 -22.175781 11.285156 -22.023438 10.890625 -21.828125 C 10.492188 -21.640625 10.238281 -21.375 10.125 -21.03125 C 10.007812 -20.6875 9.925781 -20.144531 9.875 -19.40625 C 9.59375 -15.5625 9.453125 -10.859375 9.453125 -5.296875 C 9.453125 -4.609375 9.515625 -4.101562 9.640625 -3.78125 C 9.773438 -3.457031 10.003906 -3.238281 10.328125 -3.125 C 10.660156 -3.007812 11.175781 -2.953125 11.875 -2.953125 C 13.15625 -2.953125 14.109375 -3.09375 14.734375 -3.375 C 15.359375 -3.65625 15.820312 -4.191406 16.125 -4.984375 C 16.4375 -5.785156 16.695312 -7.046875 16.90625 -8.765625 L 20.015625 -9.109375 L 20.28125 -8.71875 C 20.207031 -8.226562 20.0625 -7.128906 19.84375 -5.421875 C 19.625 -3.722656 19.4375 -1.941406 19.28125 -0.078125 L 18.90625 0.3125 C 18.207031 0.28125 16.707031 0.21875 14.40625 0.125 C 12.101562 0.0390625 10.015625 0 8.140625 0 C 6.734375 0 5.390625 0.0507812 4.109375 0.15625 C 2.828125 0.257812 2.007812 0.335938 1.65625 0.390625 Z M 1.953125 -2.1875 "/></g></g></g><g fill="#ffffff" fill-opacity="1"><g transform="translate(296.542996, 171.772212)"><g><path d="M 21.40625 -7.265625 C 20.988281 -5.265625 20.640625 -2.894531 20.359375 -0.15625 L 19.984375 0.265625 C 15.085938 0.0859375 11.101562 0 8.03125 0 C 5.875 0 3.679688 0.128906 1.453125 0.390625 L 1.734375 -2.1875 C 2.804688 -2.34375 3.535156 -2.648438 3.921875 -3.109375 C 4.304688 -3.566406 4.5 -4.363281 4.5 -5.5 L 4.53125 -20.140625 C 4.53125 -20.984375 4.453125 -21.535156 4.296875 -21.796875 C 4.148438 -22.066406 3.816406 -22.203125 3.296875 -22.203125 C 2.972656 -22.203125 2.578125 -22.175781 2.109375 -22.125 L 1.875 -22.484375 L 2.1875 -24.78125 L 2.953125 -24.78125 C 4.773438 -24.707031 6.835938 -24.671875 9.140625 -24.671875 C 14.859375 -24.671875 18.753906 -24.820312 20.828125 -25.125 L 21.125 -24.703125 C 20.925781 -23.753906 20.742188 -22.625 20.578125 -21.3125 C 20.410156 -20.007812 20.300781 -18.820312 20.25 -17.75 L 16.828125 -17.515625 L 16.90625 -19.0625 C 16.90625 -19.820312 16.796875 -20.363281 16.578125 -20.6875 C 16.359375 -21.007812 15.921875 -21.226562 15.265625 -21.34375 C 14.617188 -21.457031 13.523438 -21.515625 11.984375 -21.515625 C 11.316406 -21.515625 10.851562 -21.488281 10.59375 -21.4375 C 10.34375 -21.382812 10.171875 -21.269531 10.078125 -21.09375 C 9.992188 -20.914062 9.9375 -20.617188 9.90625 -20.203125 L 9.640625 -14.171875 L 13.25 -14.140625 C 13.789062 -14.140625 14.460938 -14.171875 15.265625 -14.234375 C 16.078125 -14.296875 16.894531 -14.378906 17.71875 -14.484375 L 18.015625 -14.140625 L 17.484375 -10.875 C 17.148438 -10.875 16.894531 -10.882812 16.71875 -10.90625 C 14.925781 -10.957031 13.503906 -10.984375 12.453125 -10.984375 C 11.648438 -10.984375 10.660156 -10.910156 9.484375 -10.765625 L 9.40625 -5.265625 C 9.40625 -4.546875 9.460938 -4.03125 9.578125 -3.71875 C 9.703125 -3.414062 9.921875 -3.210938 10.234375 -3.109375 C 10.554688 -3.003906 11.113281 -2.953125 11.90625 -2.953125 C 13.601562 -2.953125 14.828125 -3.046875 15.578125 -3.234375 C 16.335938 -3.429688 16.882812 -3.820312 17.21875 -4.40625 C 17.550781 -5 17.804688 -5.976562 17.984375 -7.34375 L 21.125 -7.609375 Z M 21.40625 -7.265625 "/></g></g></g><g fill="#ffffff" fill-opacity="1"><g transform="translate(129.64858, 224.198174)"><g><path d="M 1.6875 -2.109375 C 2.8125 -2.335938 3.566406 -2.664062 3.953125 -3.09375 C 4.335938 -3.519531 4.53125 -4.269531 4.53125 -5.34375 L 4.53125 -20.203125 C 4.53125 -21.003906 4.441406 -21.535156 4.265625 -21.796875 C 4.085938 -22.066406 3.71875 -22.203125 3.15625 -22.203125 L 1.8125 -22.171875 L 1.609375 -22.484375 L 1.921875 -24.703125 L 7.21875 -24.671875 C 8.0625 -24.671875 9.859375 -24.757812 12.609375 -24.9375 L 12.40625 -22.40625 C 11.4375 -22.269531 10.789062 -22.066406 10.46875 -21.796875 C 10.144531 -21.535156 9.957031 -21.046875 9.90625 -20.328125 C 9.570312 -14.273438 9.40625 -9.191406 9.40625 -5.078125 C 9.40625 -4.023438 9.507812 -3.316406 9.71875 -2.953125 C 9.925781 -2.597656 10.320312 -2.421875 10.90625 -2.421875 C 11.1875 -2.421875 11.753906 -2.457031 12.609375 -2.53125 L 12.75 -2.3125 L 12.40625 0.109375 L 11.03125 0.078125 L 6.765625 0 C 5.585938 0 3.816406 0.113281 1.453125 0.34375 Z M 1.6875 -2.109375 "/></g></g></g><g fill="#ffffff" fill-opacity="1"><g transform="translate(147.861933, 224.198174)"><g><path d="M 20.25 1.03125 C 17.738281 -2.957031 15.207031 -6.847656 12.65625 -10.640625 C 10.113281 -14.429688 8.84375 -16.300781 8.84375 -16.25 L 8.484375 -16.25 L 8.453125 -4.15625 C 8.453125 -3.488281 8.546875 -3.03125 8.734375 -2.78125 C 8.929688 -2.539062 9.273438 -2.421875 9.765625 -2.421875 L 11.453125 -2.5 L 11.640625 -2.265625 L 11.25 0.15625 C 10.894531 0.125 10.226562 0.0859375 9.25 0.046875 C 8.28125 0.015625 7.3125 0 6.34375 0 C 5.5 0 4.585938 0.0390625 3.609375 0.125 C 2.640625 0.21875 2.015625 0.28125 1.734375 0.3125 L 2 -2.234375 C 2.789062 -2.328125 3.363281 -2.5625 3.71875 -2.9375 C 4.082031 -3.3125 4.273438 -3.882812 4.296875 -4.65625 L 4.765625 -19.90625 C 4.765625 -20.71875 4.554688 -21.289062 4.140625 -21.625 C 3.734375 -21.957031 2.90625 -22.191406 1.65625 -22.328125 L 1.390625 -22.671875 L 1.65625 -24.859375 C 1.9375 -24.835938 2.535156 -24.800781 3.453125 -24.75 C 4.378906 -24.695312 5.238281 -24.671875 6.03125 -24.671875 C 6.695312 -24.671875 7.40625 -24.6875 8.15625 -24.71875 C 8.914062 -24.757812 9.410156 -24.796875 9.640625 -24.828125 C 11.742188 -21.390625 14.003906 -17.851562 16.421875 -14.21875 C 18.847656 -10.582031 20.0625 -8.789062 20.0625 -8.84375 L 20.4375 -8.84375 L 20.359375 -20.5625 C 20.335938 -21.144531 20.226562 -21.5625 20.03125 -21.8125 C 19.84375 -22.070312 19.53125 -22.203125 19.09375 -22.203125 L 17.75 -22.171875 L 17.640625 -22.4375 L 17.90625 -24.828125 C 18.257812 -24.796875 18.914062 -24.757812 19.875 -24.71875 C 20.84375 -24.6875 21.8125 -24.671875 22.78125 -24.671875 C 23.550781 -24.671875 24.414062 -24.695312 25.375 -24.75 C 26.332031 -24.800781 26.96875 -24.835938 27.28125 -24.859375 L 27.09375 -22.328125 C 26.21875 -22.191406 25.59375 -21.945312 25.21875 -21.59375 C 24.851562 -21.238281 24.65625 -20.675781 24.625 -19.90625 L 24.125 0.53125 Z M 20.25 1.03125 "/></g></g></g><g fill="#ffffff" fill-opacity="1"><g transform="translate(180.021207, 224.198174)"><g><path d="M 8.453125 0.46875 C 7.273438 0.46875 6.1875 0.359375 5.1875 0.140625 C 4.1875 -0.078125 3.359375 -0.3125 2.703125 -0.5625 C 2.054688 -0.820312 1.734375 -0.96875 1.734375 -1 L 1.421875 -1.53125 C 1.441406 -1.71875 1.5 -2.109375 1.59375 -2.703125 C 1.6875 -3.304688 1.78125 -4.113281 1.875 -5.125 C 1.976562 -6.132812 2.03125 -7.113281 2.03125 -8.0625 L 5.1875 -8.296875 C 5.1875 -6.859375 5.3125 -5.753906 5.5625 -4.984375 C 5.820312 -4.222656 6.253906 -3.679688 6.859375 -3.359375 C 7.460938 -3.035156 8.328125 -2.875 9.453125 -2.875 C 10.679688 -2.875 11.664062 -3.144531 12.40625 -3.6875 C 13.15625 -4.226562 13.53125 -4.972656 13.53125 -5.921875 C 13.53125 -6.765625 13.140625 -7.476562 12.359375 -8.0625 C 11.578125 -8.65625 10.363281 -9.347656 8.71875 -10.140625 C 8.613281 -10.191406 8.320312 -10.332031 7.84375 -10.5625 C 5.914062 -11.488281 4.414062 -12.460938 3.34375 -13.484375 C 2.269531 -14.503906 1.734375 -15.835938 1.734375 -17.484375 C 1.734375 -18.941406 2.164062 -20.253906 3.03125 -21.421875 C 3.90625 -22.585938 5.113281 -23.492188 6.65625 -24.140625 C 8.207031 -24.796875 9.972656 -25.125 11.953125 -25.125 C 13.078125 -25.125 14.117188 -25.046875 15.078125 -24.890625 C 16.035156 -24.742188 16.800781 -24.585938 17.375 -24.421875 C 17.957031 -24.253906 18.328125 -24.144531 18.484375 -24.09375 L 18.75 -23.59375 C 18.726562 -23.4375 18.648438 -23.046875 18.515625 -22.421875 C 18.390625 -21.796875 18.257812 -20.992188 18.125 -20.015625 C 18 -19.046875 17.898438 -18.046875 17.828125 -17.015625 L 14.984375 -16.796875 L 14.640625 -17.015625 C 14.640625 -17.097656 14.648438 -17.257812 14.671875 -17.5 C 14.703125 -17.738281 14.71875 -18.039062 14.71875 -18.40625 C 14.71875 -19.5625 14.425781 -20.378906 13.84375 -20.859375 C 13.269531 -21.347656 12.304688 -21.59375 10.953125 -21.59375 C 9.847656 -21.59375 8.941406 -21.328125 8.234375 -20.796875 C 7.535156 -20.273438 7.1875 -19.601562 7.1875 -18.78125 C 7.1875 -18.164062 7.410156 -17.609375 7.859375 -17.109375 C 8.304688 -16.617188 8.84375 -16.191406 9.46875 -15.828125 C 10.09375 -15.472656 11.007812 -15 12.21875 -14.40625 C 13.65625 -13.71875 14.835938 -13.09375 15.765625 -12.53125 C 16.703125 -11.96875 17.488281 -11.25 18.125 -10.375 C 18.769531 -9.5 19.09375 -8.460938 19.09375 -7.265625 C 19.09375 -5.722656 18.648438 -4.367188 17.765625 -3.203125 C 16.878906 -2.035156 15.632812 -1.128906 14.03125 -0.484375 C 12.4375 0.148438 10.578125 0.46875 8.453125 0.46875 Z M 8.453125 0.46875 "/></g></g></g><g fill="#ffffff" fill-opacity="1"><g transform="translate(204.919394, 224.198174)"><g><path d="M 4.5 -2.265625 C 5.675781 -2.367188 6.519531 -2.519531 7.03125 -2.71875 C 7.539062 -2.925781 7.882812 -3.285156 8.0625 -3.796875 C 8.25 -4.316406 8.34375 -5.164062 8.34375 -6.34375 L 8.34375 -21.75 C 6.851562 -21.695312 5.804688 -21.566406 5.203125 -21.359375 C 4.597656 -21.160156 4.179688 -20.742188 3.953125 -20.109375 C 3.722656 -19.484375 3.519531 -18.351562 3.34375 -16.71875 L 0.1875 -16.484375 C 0.375 -18.609375 0.53125 -21.335938 0.65625 -24.671875 L 1.078125 -25.09375 L 4.875 -24.671875 L 16.875 -24.671875 L 20.75 -25.09375 L 21.171875 -24.671875 C 21.222656 -21.597656 21.347656 -18.945312 21.546875 -16.71875 L 18.40625 -16.484375 C 18.195312 -18.222656 17.984375 -19.410156 17.765625 -20.046875 C 17.546875 -20.691406 17.160156 -21.125 16.609375 -21.34375 C 16.066406 -21.5625 15.085938 -21.695312 13.671875 -21.75 C 13.546875 -19.851562 13.4375 -17.273438 13.34375 -14.015625 C 13.257812 -10.765625 13.21875 -7.8125 13.21875 -5.15625 C 13.21875 -4.207031 13.382812 -3.523438 13.71875 -3.109375 C 14.050781 -2.703125 14.585938 -2.5 15.328125 -2.5 C 15.972656 -2.5 16.648438 -2.535156 17.359375 -2.609375 L 17.515625 -2.421875 L 17.171875 0.15625 C 14.460938 0.0507812 12.257812 0 10.5625 0 C 9.226562 0 7.101562 0.078125 4.1875 0.234375 Z M 4.5 -2.265625 "/></g></g></g><g fill="#ffffff" fill-opacity="1"><g transform="translate(230.893288, 224.198174)"><g><path d="M 1.6875 -2.109375 C 2.8125 -2.335938 3.566406 -2.664062 3.953125 -3.09375 C 4.335938 -3.519531 4.53125 -4.269531 4.53125 -5.34375 L 4.53125 -20.203125 C 4.53125 -21.003906 4.441406 -21.535156 4.265625 -21.796875 C 4.085938 -22.066406 3.71875 -22.203125 3.15625 -22.203125 L 1.8125 -22.171875 L 1.609375 -22.484375 L 1.921875 -24.703125 L 7.21875 -24.671875 C 8.0625 -24.671875 9.859375 -24.757812 12.609375 -24.9375 L 12.40625 -22.40625 C 11.4375 -22.269531 10.789062 -22.066406 10.46875 -21.796875 C 10.144531 -21.535156 9.957031 -21.046875 9.90625 -20.328125 C 9.570312 -14.273438 9.40625 -9.191406 9.40625 -5.078125 C 9.40625 -4.023438 9.507812 -3.316406 9.71875 -2.953125 C 9.925781 -2.597656 10.320312 -2.421875 10.90625 -2.421875 C 11.1875 -2.421875 11.753906 -2.457031 12.609375 -2.53125 L 12.75 -2.3125 L 12.40625 0.109375 L 11.03125 0.078125 L 6.765625 0 C 5.585938 0 3.816406 0.113281 1.453125 0.34375 Z M 1.6875 -2.109375 "/></g></g></g><g fill="#ffffff" fill-opacity="1"><g transform="translate(249.106642, 224.198174)"><g><path d="M 4.5 -2.265625 C 5.675781 -2.367188 6.519531 -2.519531 7.03125 -2.71875 C 7.539062 -2.925781 7.882812 -3.285156 8.0625 -3.796875 C 8.25 -4.316406 8.34375 -5.164062 8.34375 -6.34375 L 8.34375 -21.75 C 6.851562 -21.695312 5.804688 -21.566406 5.203125 -21.359375 C 4.597656 -21.160156 4.179688 -20.742188 3.953125 -20.109375 C 3.722656 -19.484375 3.519531 -18.351562 3.34375 -16.71875 L 0.1875 -16.484375 C 0.375 -18.609375 0.53125 -21.335938 0.65625 -24.671875 L 1.078125 -25.09375 L 4.875 -24.671875 L 16.875 -24.671875 L 20.75 -25.09375 L 21.171875 -24.671875 C 21.222656 -21.597656 21.347656 -18.945312 21.546875 -16.71875 L 18.40625 -16.484375 C 18.195312 -18.222656 17.984375 -19.410156 17.765625 -20.046875 C 17.546875 -20.691406 17.160156 -21.125 16.609375 -21.34375 C 16.066406 -21.5625 15.085938 -21.695312 13.671875 -21.75 C 13.546875 -19.851562 13.4375 -17.273438 13.34375 -14.015625 C 13.257812 -10.765625 13.21875 -7.8125 13.21875 -5.15625 C 13.21875 -4.207031 13.382812 -3.523438 13.71875 -3.109375 C 14.050781 -2.703125 14.585938 -2.5 15.328125 -2.5 C 15.972656 -2.5 16.648438 -2.535156 17.359375 -2.609375 L 17.515625 -2.421875 L 17.171875 0.15625 C 14.460938 0.0507812 12.257812 0 10.5625 0 C 9.226562 0 7.101562 0.078125 4.1875 0.234375 Z M 4.5 -2.265625 "/></g></g></g><g fill="#ffffff" fill-opacity="1"><g transform="translate(275.080537, 224.198174)"><g><path d="M 12.1875 0.46875 C 6.257812 0.46875 3.296875 -2.300781 3.296875 -7.84375 L 3.296875 -20.140625 C 3.296875 -20.984375 3.210938 -21.535156 3.046875 -21.796875 C 2.890625 -22.066406 2.550781 -22.203125 2.03125 -22.203125 C 1.78125 -22.203125 1.53125 -22.1875 1.28125 -22.15625 C 1.039062 -22.132812 0.882812 -22.125 0.8125 -22.125 L 0.734375 -22.28125 L 1.078125 -24.78125 C 1.429688 -24.757812 2.125 -24.734375 3.15625 -24.703125 C 4.195312 -24.679688 5.3125 -24.671875 6.5 -24.671875 C 7.164062 -24.671875 8.007812 -24.703125 9.03125 -24.765625 C 10.050781 -24.828125 10.726562 -24.867188 11.0625 -24.890625 L 10.796875 -22.359375 C 9.972656 -22.253906 9.414062 -22.054688 9.125 -21.765625 C 8.832031 -21.472656 8.660156 -20.976562 8.609375 -20.28125 L 8.34375 -9.0625 C 8.34375 -7.113281 8.753906 -5.609375 9.578125 -4.546875 C 10.410156 -3.484375 11.609375 -2.953125 13.171875 -2.953125 C 16.378906 -2.953125 17.984375 -4.644531 17.984375 -8.03125 C 17.984375 -10 17.960938 -12.25 17.921875 -14.78125 C 17.878906 -17.320312 17.847656 -19.109375 17.828125 -20.140625 C 17.804688 -20.984375 17.71875 -21.535156 17.5625 -21.796875 C 17.40625 -22.066406 17.082031 -22.203125 16.59375 -22.203125 C 16.34375 -22.203125 16.085938 -22.1875 15.828125 -22.15625 C 15.578125 -22.132812 15.398438 -22.125 15.296875 -22.125 L 15.21875 -22.28125 L 15.5625 -24.78125 C 15.894531 -24.78125 16.503906 -24.757812 17.390625 -24.71875 C 18.273438 -24.6875 19.148438 -24.671875 20.015625 -24.671875 C 20.835938 -24.671875 21.726562 -24.703125 22.6875 -24.765625 C 23.644531 -24.828125 24.265625 -24.867188 24.546875 -24.890625 L 24.328125 -22.40625 C 23.628906 -22.25 23.125 -22.101562 22.8125 -21.96875 C 22.507812 -21.84375 22.304688 -21.664062 22.203125 -21.4375 C 22.097656 -21.207031 22.046875 -20.863281 22.046875 -20.40625 L 22.046875 -8.453125 C 22.046875 -5.585938 21.203125 -3.382812 19.515625 -1.84375 C 17.828125 -0.300781 15.382812 0.46875 12.1875 0.46875 Z M 12.1875 0.46875 "/></g></g></g><g fill="#ffffff" fill-opacity="1"><g transform="translate(304.512114, 224.198174)"><g><path d="M 4.5 -2.265625 C 5.675781 -2.367188 6.519531 -2.519531 7.03125 -2.71875 C 7.539062 -2.925781 7.882812 -3.285156 8.0625 -3.796875 C 8.25 -4.316406 8.34375 -5.164062 8.34375 -6.34375 L 8.34375 -21.75 C 6.851562 -21.695312 5.804688 -21.566406 5.203125 -21.359375 C 4.597656 -21.160156 4.179688 -20.742188 3.953125 -20.109375 C 3.722656 -19.484375 3.519531 -18.351562 3.34375 -16.71875 L 0.1875 -16.484375 C 0.375 -18.609375 0.53125 -21.335938 0.65625 -24.671875 L 1.078125 -25.09375 L 4.875 -24.671875 L 16.875 -24.671875 L 20.75 -25.09375 L 21.171875 -24.671875 C 21.222656 -21.597656 21.347656 -18.945312 21.546875 -16.71875 L 18.40625 -16.484375 C 18.195312 -18.222656 17.984375 -19.410156 17.765625 -20.046875 C 17.546875 -20.691406 17.160156 -21.125 16.609375 -21.34375 C 16.066406 -21.5625 15.085938 -21.695312 13.671875 -21.75 C 13.546875 -19.851562 13.4375 -17.273438 13.34375 -14.015625 C 13.257812 -10.765625 13.21875 -7.8125 13.21875 -5.15625 C 13.21875 -4.207031 13.382812 -3.523438 13.71875 -3.109375 C 14.050781 -2.703125 14.585938 -2.5 15.328125 -2.5 C 15.972656 -2.5 16.648438 -2.535156 17.359375 -2.609375 L 17.515625 -2.421875 L 17.171875 0.15625 C 14.460938 0.0507812 12.257812 0 10.5625 0 C 9.226562 0 7.101562 0.078125 4.1875 0.234375 Z M 4.5 -2.265625 "/></g></g></g><g fill="#ffffff" fill-opacity="1"><g transform="translate(330.486008, 224.198174)"><g><path d="M 21.40625 -7.265625 C 20.988281 -5.265625 20.640625 -2.894531 20.359375 -0.15625 L 19.984375 0.265625 C 15.085938 0.0859375 11.101562 0 8.03125 0 C 5.875 0 3.679688 0.128906 1.453125 0.390625 L 1.734375 -2.1875 C 2.804688 -2.34375 3.535156 -2.648438 3.921875 -3.109375 C 4.304688 -3.566406 4.5 -4.363281 4.5 -5.5 L 4.53125 -20.140625 C 4.53125 -20.984375 4.453125 -21.535156 4.296875 -21.796875 C 4.148438 -22.066406 3.816406 -22.203125 3.296875 -22.203125 C 2.972656 -22.203125 2.578125 -22.175781 2.109375 -22.125 L 1.875 -22.484375 L 2.1875 -24.78125 L 2.953125 -24.78125 C 4.773438 -24.707031 6.835938 -24.671875 9.140625 -24.671875 C 14.859375 -24.671875 18.753906 -24.820312 20.828125 -25.125 L 21.125 -24.703125 C 20.925781 -23.753906 20.742188 -22.625 20.578125 -21.3125 C 20.410156 -20.007812 20.300781 -18.820312 20.25 -17.75 L 16.828125 -17.515625 L 16.90625 -19.0625 C 16.90625 -19.820312 16.796875 -20.363281 16.578125 -20.6875 C 16.359375 -21.007812 15.921875 -21.226562 15.265625 -21.34375 C 14.617188 -21.457031 13.523438 -21.515625 11.984375 -21.515625 C 11.316406 -21.515625 10.851562 -21.488281 10.59375 -21.4375 C 10.34375 -21.382812 10.171875 -21.269531 10.078125 -21.09375 C 9.992188 -20.914062 9.9375 -20.617188 9.90625 -20.203125 L 9.640625 -14.171875 L 13.25 -14.140625 C 13.789062 -14.140625 14.460938 -14.171875 15.265625 -14.234375 C 16.078125 -14.296875 16.894531 -14.378906 17.71875 -14.484375 L 18.015625 -14.140625 L 17.484375 -10.875 C 17.148438 -10.875 16.894531 -10.882812 16.71875 -10.90625 C 14.925781 -10.957031 13.503906 -10.984375 12.453125 -10.984375 C 11.648438 -10.984375 10.660156 -10.910156 9.484375 -10.765625 L 9.40625 -5.265625 C 9.40625 -4.546875 9.460938 -4.03125 9.578125 -3.71875 C 9.703125 -3.414062 9.921875 -3.210938 10.234375 -3.109375 C 10.554688 -3.003906 11.113281 -2.953125 11.90625 -2.953125 C 13.601562 -2.953125 14.828125 -3.046875 15.578125 -3.234375 C 16.335938 -3.429688 16.882812 -3.820312 17.21875 -4.40625 C 17.550781 -5 17.804688 -5.976562 17.984375 -7.34375 L 21.125 -7.609375 Z M 21.40625 -7.265625 "/></g></g></g><g clip-path="url(#275e8eb66d)"><path fill="#ffffff" d="M 118.53125 142.074219 C 119.386719 142.929688 120.675781 142.929688 121.535156 142.074219 C 122.390625 141.214844 122.390625 139.929688 121.535156 139.070312 C 120.675781 138.214844 119.386719 138.214844 118.53125 139.070312 C 117.671875 139.929688 117.671875 141.214844 118.53125 142.074219 Z M 67.484375 194.179688 L 39.386719 221.84375 L 67.125 193.609375 C 66.910156 193.324219 66.695312 193.039062 66.480469 192.824219 L 64.695312 191.109375 L 37.667969 219.769531 C 37.667969 219.769531 27.945312 227.488281 23.226562 239.210938 C 23.226562 239.210938 34.167969 231.777344 42.675781 222.773438 L 69.199219 197.324219 C 68.699219 196.253906 68.199219 195.109375 67.554688 194.179688 Z M 97.4375 162.800781 L 96.582031 157.296875 L 72.988281 182.246094 L 75.632812 184.890625 L 97.4375 162.730469 Z M 76.277344 185.53125 C 76.992188 186.105469 77.851562 186.675781 78.636719 187.105469 C 78.777344 187.175781 79.066406 187.320312 79.351562 187.460938 L 103.515625 164.230469 L 98.296875 163.804688 L 76.277344 185.460938 Z M 107.734375 157.296875 L 103.445312 153.007812 L 113.597656 142.859375 L 117.886719 147.148438 Z M 96.367188 147.078125 L 112.667969 163.375 C 112.667969 163.375 115.097656 166.449219 111.59375 168.59375 C 111.59375 168.59375 105.230469 160.230469 99.082031 162.230469 C 99.082031 162.230469 99.226562 153.4375 92.292969 149.9375 C 92.292969 149.9375 93.363281 145.503906 96.4375 147.148438 Z M 116.671875 137.214844 C 118.53125 135.355469 121.535156 135.355469 123.390625 137.214844 C 125.25 139.070312 125.25 142.074219 123.390625 143.933594 C 121.535156 145.789062 118.53125 145.789062 116.671875 143.933594 C 114.8125 142.074219 114.8125 139.070312 116.671875 137.214844 Z M 116.671875 137.214844 " fill-opacity="1" fill-rule="evenodd"/></g><g clip-path="url(#37f799f247)"><path fill="#ffffff" d="M 26.875 145.003906 C 28.660156 143.21875 28.875 140.5 27.300781 138.929688 C 26.160156 137.785156 24.441406 137.640625 22.941406 138.285156 C 23.15625 137.5 23.011719 136.785156 22.441406 136.210938 C 21.582031 135.355469 19.9375 135.496094 18.867188 136.570312 C 17.792969 137.640625 17.578125 139.285156 18.507812 140.144531 C 18.9375 140.574219 19.652344 140.785156 20.296875 140.644531 C 19.4375 142.289062 19.582031 144.21875 20.796875 145.433594 C 22.371094 147.003906 25.085938 146.792969 26.875 145.003906 Z M 26.875 145.003906 " fill-opacity="1" fill-rule="evenodd"/></g><path fill="#ffffff" d="M 34.378906 157.796875 C 34.667969 152.9375 39.097656 153.4375 39.097656 153.4375 C 35.308594 147.507812 29.089844 144.648438 29.089844 144.648438 L 26.660156 146.792969 C 25.585938 149.648438 34.378906 157.871094 34.378906 157.871094 Z M 34.378906 157.796875 " fill-opacity="1" fill-rule="evenodd"/><path fill="#ffffff" d="M 39.3125 161.371094 C 39.171875 162.015625 39.027344 162.730469 38.742188 163.515625 C 38.527344 164.304688 38.242188 165.089844 37.957031 165.945312 C 37.667969 166.734375 37.382812 167.589844 37.027344 168.304688 C 36.738281 169.019531 36.382812 169.734375 36.097656 170.308594 C 35.523438 171.449219 35.023438 172.238281 35.023438 172.238281 C 35.023438 172.238281 35.09375 171.378906 35.382812 170.09375 C 35.523438 169.449219 35.667969 168.734375 35.953125 167.949219 C 36.167969 167.164062 36.453125 166.375 36.738281 165.519531 C 37.027344 164.730469 37.3125 163.875 37.667969 163.160156 C 37.957031 162.445312 38.3125 161.730469 38.597656 161.15625 C 39.171875 160.015625 39.671875 159.226562 39.671875 159.226562 C 39.671875 159.226562 39.601562 160.085938 39.3125 161.371094 Z M 56.042969 154.011719 L 53.46875 151.152344 L 36.953125 155.867188 L 32.59375 172.09375 L 35.453125 174.953125 L 41.386719 159.65625 L 56.113281 154.082031 Z M 56.042969 154.011719 " fill-opacity="1" fill-rule="evenodd"/><path fill="#ffffff" d="M 74.703125 186.605469 L 47.394531 159.300781 L 44.175781 160.515625 L 100.871094 218.554688 L 42.386719 161.445312 L 40.671875 165.945312 L 67.625 191.394531 C 70.058594 193.824219 71.699219 199.113281 71.699219 199.113281 C 73.988281 198.683594 77.277344 201.972656 77.277344 201.972656 C 98.226562 227.132812 118.171875 236.851562 118.171875 236.851562 C 118.171875 226.273438 83.640625 194.753906 83.640625 194.753906 C 80.925781 192.035156 80.636719 189.605469 80.636719 189.605469 C 78.492188 189.890625 74.5625 186.605469 74.5625 186.605469 Z M 74.703125 186.605469 " fill-opacity="1" fill-rule="evenodd"/></svg>
