<svg xmlns="http://www.w3.org/2000/svg" xmlns:xlink="http://www.w3.org/1999/xlink" width="500" zoomAndPan="magnify" viewBox="0 0 375 374.999991" height="500" preserveAspectRatio="xMidYMid meet" version="1.0"><defs><g/><clipPath id="5af92dcb71"><path d="M 57 153.871094 L 119 153.871094 L 119 221.371094 L 57 221.371094 Z M 57 153.871094 " clip-rule="nonzero"/></clipPath><clipPath id="22884e1496"><path d="M 59 155.542969 L 117 155.542969 L 117 219.292969 L 59 219.292969 Z M 59 155.542969 " clip-rule="nonzero"/></clipPath><clipPath id="f4293ac83d"><path d="M 58 155.542969 L 116 155.542969 L 116 217.792969 L 58 217.792969 Z M 58 155.542969 " clip-rule="nonzero"/></clipPath></defs><g clip-path="url(#5af92dcb71)"><path fill="#ffffff" d="M 87.734375 221.328125 L 87.464844 221.25 C 79.089844 218.621094 72.335938 213.941406 67.355469 207.347656 C 63.398438 202.089844 60.5625 195.601562 58.953125 188.09375 C 56.214844 175.351562 57.894531 164.199219 57.972656 163.726562 L 58.054688 163.175781 L 87.722656 153.914062 L 117.390625 163.175781 L 117.46875 163.726562 C 117.535156 164.199219 119.214844 175.351562 116.488281 188.09375 C 114.878906 195.601562 112.046875 202.089844 108.085938 207.347656 C 103.121094 213.941406 96.351562 218.621094 87.976562 221.25 Z M 59.652344 164.539062 C 59.34375 166.9375 58.347656 176.886719 60.699219 187.769531 C 62.257812 195.023438 64.980469 201.253906 68.792969 206.296875 C 73.480469 212.511719 79.855469 216.949219 87.734375 219.46875 C 95.628906 216.933594 102.003906 212.496094 106.691406 206.269531 C 110.503906 201.210938 113.214844 194.96875 114.773438 187.714844 C 117.105469 176.847656 116.113281 166.925781 115.804688 164.539062 L 87.722656 155.773438 Z M 59.652344 164.539062 " fill-opacity="1" fill-rule="nonzero"/></g><g fill="#ffffff" fill-opacity="1"><g transform="translate(133.83625, 181.995873)"><g><path d="M 13.960938 -3.222656 L 16.109375 -5.371094 L 16.109375 -12.886719 L 13.960938 -15.035156 L 0.105469 -15.035156 L 0.105469 -10.738281 L 11.8125 -10.738281 L 11.8125 -7.515625 L 6.015625 -7.515625 L 6.015625 -9.664062 L 1.71875 -9.664062 L 1.71875 0 L 6.015625 0 L 6.015625 -3.222656 Z M 4.296875 -4.941406 L 4.296875 -1.71875 L 3.4375 -1.71875 L 3.4375 -7.945312 L 4.296875 -7.945312 L 4.296875 -5.800781 L 13.53125 -5.800781 L 13.53125 -12.457031 L 1.824219 -12.457031 L 1.824219 -13.316406 L 13.230469 -13.316406 L 14.390625 -12.179688 L 14.390625 -6.101562 L 13.230469 -4.941406 Z M 4.296875 -4.941406 "/></g></g></g><g fill="#ffffff" fill-opacity="1"><g transform="translate(150.588558, 181.995873)"><g><path d="M 18.964844 0 L 11.941406 -15.035156 L 3.609375 -15.035156 L 3.609375 -10.738281 L 5.21875 -10.738281 L 0.214844 0 L 4.941406 0 L 5.929688 -2.148438 L 13.230469 -2.148438 L 14.238281 0 Z M 11.210938 -6.445312 L 7.925781 -6.445312 L 9.492188 -10.738281 L 9.644531 -10.738281 Z M 15.335938 -1.71875 L 14.324219 -3.867188 L 4.8125 -3.867188 L 3.824219 -1.71875 L 2.921875 -1.71875 L 7.925781 -12.457031 L 5.328125 -12.457031 L 5.328125 -13.316406 L 10.867188 -13.316406 L 16.257812 -1.71875 Z M 10.417969 -12.457031 L 8.71875 -12.457031 L 5.046875 -4.726562 L 14.089844 -4.726562 Z M 10.417969 -12.457031 "/></g></g></g><g fill="#ffffff" fill-opacity="1"><g transform="translate(169.7678, 181.995873)"><g><path d="M 17.183594 0 L 13.960938 -3.222656 L 16.109375 -5.371094 L 16.109375 -12.886719 L 13.960938 -15.035156 L 0.105469 -15.035156 L 0.105469 -10.738281 L 11.8125 -10.738281 L 11.8125 -7.515625 L 6.015625 -7.515625 L 6.015625 -9.664062 L 1.71875 -9.664062 L 1.71875 0 L 6.015625 0 L 6.015625 -3.222656 L 8.742188 -3.222656 L 11.964844 0 Z M 13.445312 -1.71875 L 12.285156 -1.71875 L 9.042969 -4.941406 L 4.296875 -4.941406 L 4.296875 -1.71875 L 3.4375 -1.71875 L 3.4375 -7.945312 L 4.296875 -7.945312 L 4.296875 -5.800781 L 13.53125 -5.800781 L 13.53125 -12.457031 L 1.824219 -12.457031 L 1.824219 -13.316406 L 13.230469 -13.316406 L 14.390625 -12.179688 L 14.390625 -6.101562 L 13.230469 -4.941406 L 10.203125 -4.941406 Z M 13.445312 -1.71875 "/></g></g></g><g fill="#ffffff" fill-opacity="1"><g transform="translate(187.164426, 181.995873)"><g><path d="M 18.964844 0 L 11.941406 -15.035156 L 3.609375 -15.035156 L 3.609375 -10.738281 L 5.21875 -10.738281 L 0.214844 0 L 4.941406 0 L 5.929688 -2.148438 L 13.230469 -2.148438 L 14.238281 0 Z M 11.210938 -6.445312 L 7.925781 -6.445312 L 9.492188 -10.738281 L 9.644531 -10.738281 Z M 15.335938 -1.71875 L 14.324219 -3.867188 L 4.8125 -3.867188 L 3.824219 -1.71875 L 2.921875 -1.71875 L 7.925781 -12.457031 L 5.328125 -12.457031 L 5.328125 -13.316406 L 10.867188 -13.316406 L 16.257812 -1.71875 Z M 10.417969 -12.457031 L 8.71875 -12.457031 L 5.046875 -4.726562 L 14.089844 -4.726562 Z M 10.417969 -12.457031 "/></g></g></g><g fill="#ffffff" fill-opacity="1"><g transform="translate(206.343668, 181.995873)"><g/></g></g><g fill="#ffffff" fill-opacity="1"><g transform="translate(214.934597, 181.995873)"><g><path d="M 13.960938 0 L 16.109375 -2.148438 L 16.109375 -5.371094 L 13.960938 -7.515625 L 16.109375 -9.664062 L 16.109375 -12.886719 L 13.960938 -15.035156 L 0.105469 -15.035156 L 0.105469 -10.738281 L 1.71875 -10.738281 L 1.71875 0 Z M 3.4375 -1.71875 L 3.4375 -12.457031 L 1.824219 -12.457031 L 1.824219 -13.316406 L 13.230469 -13.316406 L 14.390625 -12.179688 L 14.390625 -10.394531 L 11.511719 -7.515625 L 14.390625 -4.640625 L 14.390625 -2.878906 L 13.230469 -1.71875 Z M 4.296875 -2.578125 L 13.53125 -2.578125 L 13.53125 -4.640625 L 11.082031 -7.085938 L 4.296875 -7.085938 Z M 13.53125 -10.394531 L 13.53125 -12.457031 L 4.296875 -12.457031 L 4.296875 -7.945312 L 11.082031 -7.945312 Z M 11.8125 -4.296875 L 6.015625 -4.296875 L 6.015625 -5.371094 L 10.738281 -5.371094 Z M 10.738281 -9.664062 L 6.015625 -9.664062 L 6.015625 -10.738281 L 11.8125 -10.738281 Z M 10.738281 -9.664062 "/></g></g></g><g fill="#ffffff" fill-opacity="1"><g transform="translate(232.116451, 181.995873)"><g><path d="M 15.679688 0 L 15.679688 -4.296875 L 6.015625 -4.296875 L 6.015625 -5.371094 L 13.53125 -5.371094 L 13.53125 -9.664062 L 6.015625 -9.664062 L 6.015625 -10.738281 L 15.679688 -10.738281 L 15.679688 -15.035156 L 0.105469 -15.035156 L 0.105469 -10.738281 L 1.71875 -10.738281 L 1.71875 0 Z M 3.4375 -1.71875 L 3.4375 -12.457031 L 1.824219 -12.457031 L 1.824219 -13.316406 L 13.960938 -13.316406 L 13.960938 -12.457031 L 4.296875 -12.457031 L 4.296875 -7.945312 L 11.8125 -7.945312 L 11.8125 -7.085938 L 4.296875 -7.085938 L 4.296875 -2.578125 L 13.960938 -2.578125 L 13.960938 -1.71875 Z M 3.4375 -1.71875 "/></g></g></g><g fill="#ffffff" fill-opacity="1"><g transform="translate(248.868758, 181.995873)"><g><path d="M 15.679688 0 L 15.679688 -4.296875 L 6.015625 -4.296875 L 6.015625 -15.035156 L 0.105469 -15.035156 L 0.105469 -10.738281 L 1.71875 -10.738281 L 1.71875 0 Z M 3.4375 -1.71875 L 3.4375 -12.457031 L 1.824219 -12.457031 L 1.824219 -13.316406 L 4.296875 -13.316406 L 4.296875 -2.578125 L 13.960938 -2.578125 L 13.960938 -1.71875 Z M 3.4375 -1.71875 "/></g></g></g><g fill="#ffffff" fill-opacity="1"><g transform="translate(264.761969, 181.995873)"><g><path d="M 15.679688 0 L 15.679688 -4.296875 L 6.015625 -4.296875 L 6.015625 -15.035156 L 0.105469 -15.035156 L 0.105469 -10.738281 L 1.71875 -10.738281 L 1.71875 0 Z M 3.4375 -1.71875 L 3.4375 -12.457031 L 1.824219 -12.457031 L 1.824219 -13.316406 L 4.296875 -13.316406 L 4.296875 -2.578125 L 13.960938 -2.578125 L 13.960938 -1.71875 Z M 3.4375 -1.71875 "/></g></g></g><g fill="#ffffff" fill-opacity="1"><g transform="translate(280.655192, 181.995873)"><g><path d="M 17.183594 -2.148438 L 17.183594 -15.035156 L 12.886719 -15.035156 L 12.886719 -4.296875 L 6.015625 -4.296875 L 6.015625 -15.035156 L 0.105469 -15.035156 L 0.105469 -10.738281 L 1.71875 -10.738281 L 1.71875 -2.148438 L 3.867188 0 L 15.035156 0 Z M 14.304688 -1.71875 L 4.597656 -1.71875 L 3.4375 -2.898438 L 3.4375 -12.457031 L 1.824219 -12.457031 L 1.824219 -13.316406 L 4.296875 -13.316406 L 4.296875 -2.578125 L 14.605469 -2.578125 L 14.605469 -13.316406 L 15.464844 -13.316406 L 15.464844 -2.878906 Z M 14.304688 -1.71875 "/></g></g></g><g fill="#ffffff" fill-opacity="1"><g transform="translate(298.910909, 181.995873)"><g><path d="M 18.792969 0 L 18.792969 -15.035156 L 14.496094 -15.035156 L 10.246094 -9.300781 L 6.015625 -15.035156 L 0.105469 -15.035156 L 0.105469 -10.738281 L 1.71875 -10.738281 L 1.71875 0 L 6.015625 0 L 6.015625 -7.839844 L 10.246094 -2.105469 L 14.496094 -7.839844 L 14.496094 0 Z M 16.214844 -1.71875 L 16.214844 -13.039062 L 10.246094 -5.003906 L 4.296875 -13.1875 L 4.296875 -1.71875 L 3.4375 -1.71875 L 3.4375 -12.457031 L 1.824219 -12.457031 L 1.824219 -13.316406 L 5.132812 -13.316406 L 10.222656 -6.402344 L 15.355469 -13.316406 L 17.074219 -13.316406 L 17.074219 -1.71875 Z M 16.214844 -1.71875 "/></g></g></g><g fill="#ffffff" fill-opacity="1"><g transform="translate(161.795998, 206.951283)"><g><path d="M 5.269531 0 L 5.269531 -14.753906 L 1.054688 -14.753906 L 1.054688 0 Z M 2.738281 -1.6875 L 2.738281 -13.066406 L 3.582031 -13.066406 L 3.582031 -1.6875 Z M 2.738281 -1.6875 "/></g></g></g><g fill="#ffffff" fill-opacity="1"><g transform="translate(168.118939, 206.951283)"><g><path d="M 15.808594 0 L 15.808594 -14.753906 L 11.59375 -14.753906 L 11.59375 -7.0625 L 5.902344 -14.753906 L 0.105469 -14.753906 L 0.105469 -10.539062 L 1.6875 -10.539062 L 1.6875 0 L 5.902344 0 L 5.902344 -7.695312 L 11.59375 0 Z M 12.4375 -1.6875 L 4.214844 -12.773438 L 4.214844 -1.6875 L 3.371094 -1.6875 L 3.371094 -12.226562 L 1.792969 -12.226562 L 1.792969 -13.066406 L 5.058594 -13.066406 L 13.277344 -1.960938 L 13.277344 -13.066406 L 14.121094 -13.066406 L 14.121094 -1.6875 Z M 12.4375 -1.6875 "/></g></g></g><g fill="#ffffff" fill-opacity="1"><g transform="translate(184.980122, 206.951283)"><g><path d="M 13.804688 0 L 15.914062 -2.109375 L 15.914062 -7.378906 L 13.804688 -9.484375 L 5.269531 -9.484375 L 5.269531 -10.539062 L 15.914062 -10.539062 L 15.914062 -14.753906 L 3.160156 -14.753906 L 1.054688 -12.648438 L 1.054688 -7.378906 L 3.160156 -5.269531 L 11.699219 -5.269531 L 11.699219 -4.214844 L 1.054688 -4.214844 L 1.054688 0 Z M 2.738281 -1.6875 L 2.738281 -2.53125 L 13.382812 -2.53125 L 13.382812 -6.957031 L 3.878906 -6.957031 L 2.738281 -8.113281 L 2.738281 -11.929688 L 3.878906 -13.066406 L 14.226562 -13.066406 L 14.226562 -12.226562 L 3.582031 -12.226562 L 3.582031 -7.796875 L 13.089844 -7.796875 L 14.226562 -6.683594 L 14.226562 -2.824219 L 13.089844 -1.6875 Z M 2.738281 -1.6875 "/></g></g></g><g fill="#ffffff" fill-opacity="1"><g transform="translate(201.946685, 206.951283)"><g><path d="M 10.136719 0 L 10.136719 -10.539062 L 15.957031 -10.539062 L 15.957031 -14.753906 L 0.105469 -14.753906 L 0.105469 -10.539062 L 5.921875 -10.539062 L 5.921875 0 Z M 7.609375 -1.6875 L 7.609375 -12.226562 L 1.792969 -12.226562 L 1.792969 -13.066406 L 14.269531 -13.066406 L 14.269531 -12.226562 L 8.453125 -12.226562 L 8.453125 -1.6875 Z M 7.609375 -1.6875 "/></g></g></g><g fill="#ffffff" fill-opacity="1"><g transform="translate(218.00696, 206.951283)"><g><path d="M 5.269531 0 L 5.269531 -14.753906 L 1.054688 -14.753906 L 1.054688 0 Z M 2.738281 -1.6875 L 2.738281 -13.066406 L 3.582031 -13.066406 L 3.582031 -1.6875 Z M 2.738281 -1.6875 "/></g></g></g><g fill="#ffffff" fill-opacity="1"><g transform="translate(224.329901, 206.951283)"><g><path d="M 10.136719 0 L 10.136719 -10.539062 L 15.957031 -10.539062 L 15.957031 -14.753906 L 0.105469 -14.753906 L 0.105469 -10.539062 L 5.921875 -10.539062 L 5.921875 0 Z M 7.609375 -1.6875 L 7.609375 -12.226562 L 1.792969 -12.226562 L 1.792969 -13.066406 L 14.269531 -13.066406 L 14.269531 -12.226562 L 8.453125 -12.226562 L 8.453125 -1.6875 Z M 7.609375 -1.6875 "/></g></g></g><g fill="#ffffff" fill-opacity="1"><g transform="translate(240.390176, 206.951283)"><g><path d="M 16.863281 -2.109375 L 16.863281 -14.753906 L 12.648438 -14.753906 L 12.648438 -4.214844 L 5.902344 -4.214844 L 5.902344 -14.753906 L 0.105469 -14.753906 L 0.105469 -10.539062 L 1.6875 -10.539062 L 1.6875 -2.109375 L 3.792969 0 L 14.753906 0 Z M 14.039062 -1.6875 L 4.511719 -1.6875 L 3.371094 -2.84375 L 3.371094 -12.226562 L 1.792969 -12.226562 L 1.792969 -13.066406 L 4.214844 -13.066406 L 4.214844 -2.53125 L 14.332031 -2.53125 L 14.332031 -13.066406 L 15.175781 -13.066406 L 15.175781 -2.824219 Z M 14.039062 -1.6875 "/></g></g></g><g fill="#ffffff" fill-opacity="1"><g transform="translate(258.305179, 206.951283)"><g><path d="M 10.136719 0 L 10.136719 -10.539062 L 15.957031 -10.539062 L 15.957031 -14.753906 L 0.105469 -14.753906 L 0.105469 -10.539062 L 5.921875 -10.539062 L 5.921875 0 Z M 7.609375 -1.6875 L 7.609375 -12.226562 L 1.792969 -12.226562 L 1.792969 -13.066406 L 14.269531 -13.066406 L 14.269531 -12.226562 L 8.453125 -12.226562 L 8.453125 -1.6875 Z M 7.609375 -1.6875 "/></g></g></g><g fill="#ffffff" fill-opacity="1"><g transform="translate(274.365453, 206.951283)"><g><path d="M 15.386719 0 L 15.386719 -4.214844 L 5.902344 -4.214844 L 5.902344 -5.269531 L 13.277344 -5.269531 L 13.277344 -9.484375 L 5.902344 -9.484375 L 5.902344 -10.539062 L 15.386719 -10.539062 L 15.386719 -14.753906 L 0.105469 -14.753906 L 0.105469 -10.539062 L 1.6875 -10.539062 L 1.6875 0 Z M 3.371094 -1.6875 L 3.371094 -12.226562 L 1.792969 -12.226562 L 1.792969 -13.066406 L 13.699219 -13.066406 L 13.699219 -12.226562 L 4.214844 -12.226562 L 4.214844 -7.796875 L 11.59375 -7.796875 L 11.59375 -6.957031 L 4.214844 -6.957031 L 4.214844 -2.53125 L 13.699219 -2.53125 L 13.699219 -1.6875 Z M 3.371094 -1.6875 "/></g></g></g><g clip-path="url(#22884e1496)"><path fill="#ffffff" d="M 87.898438 219.253906 L 87.644531 219.175781 C 79.664062 216.691406 73.234375 212.273438 68.492188 206.046875 C 64.71875 201.082031 62.023438 194.957031 60.488281 187.863281 C 57.878906 175.828125 59.476562 165.296875 59.554688 164.851562 L 59.632812 164.328125 L 87.886719 155.582031 L 116.140625 164.328125 L 116.21875 164.851562 C 116.28125 165.296875 117.878906 175.828125 115.285156 187.863281 C 113.75 194.957031 111.050781 201.082031 107.28125 206.046875 C 102.550781 212.273438 96.105469 216.691406 88.128906 219.175781 Z M 61.152344 165.617188 C 60.859375 167.882812 59.914062 177.28125 62.148438 187.558594 C 63.632812 194.40625 66.226562 200.292969 69.859375 205.054688 C 74.320312 210.925781 80.394531 215.113281 87.898438 217.496094 C 95.417969 215.101562 101.488281 210.910156 105.953125 205.027344 C 109.582031 200.253906 112.164062 194.355469 113.648438 187.507812 C 115.871094 177.242188 114.925781 167.871094 114.632812 165.617188 L 87.886719 157.339844 Z M 61.152344 165.617188 " fill-opacity="1" fill-rule="nonzero"/></g><g clip-path="url(#f4293ac83d)"><path fill="#ffffff" d="M 87.148438 217.757812 L 86.898438 217.683594 C 79.121094 215.257812 72.851562 210.941406 68.226562 204.859375 C 64.546875 200.011719 61.917969 194.027344 60.421875 187.101562 C 57.878906 175.351562 59.4375 165.066406 59.511719 164.628906 L 59.585938 164.121094 L 87.136719 155.578125 L 114.683594 164.121094 L 114.757812 164.628906 C 114.820312 165.066406 116.378906 175.351562 113.847656 187.101562 C 112.355469 194.027344 109.722656 200.011719 106.046875 204.859375 C 101.433594 210.941406 95.152344 215.257812 87.371094 217.683594 Z M 61.070312 165.375 C 60.785156 167.589844 59.863281 176.769531 62.042969 186.804688 C 63.488281 193.496094 66.019531 199.238281 69.558594 203.890625 C 73.910156 209.625 79.832031 213.714844 87.148438 216.042969 C 94.476562 213.703125 100.398438 209.613281 104.75 203.867188 C 108.289062 199.203125 110.808594 193.445312 112.253906 186.753906 C 114.421875 176.730469 113.5 167.578125 113.214844 165.375 L 87.136719 157.292969 Z M 61.070312 165.375 " fill-opacity="1" fill-rule="nonzero"/></g></svg>