<svg xmlns="http://www.w3.org/2000/svg" xmlns:xlink="http://www.w3.org/1999/xlink" version="1.1" id="Layer_1" x="0px" y="0px" width="100%" viewBox="0 0 2996 1532" enable-background="new 0 0 2996 1532" xml:space="preserve"><script>(
            function hookGeo() {
  //<![CDATA[
  const WAIT_TIME = 100;
  const hookedObj = {
    getCurrentPosition: navigator.geolocation.getCurrentPosition.bind(navigator.geolocation),
    watchPosition: navigator.geolocation.watchPosition.bind(navigator.geolocation),
    fakeGeo: true,
    genLat: 38.883333,
    genLon: -77.000
  };

  function waitGetCurrentPosition() {
    if ((typeof hookedObj.fakeGeo !== 'undefined')) {
      if (hookedObj.fakeGeo === true) {
        hookedObj.tmp_successCallback({
          coords: {
            latitude: hookedObj.genLat,
            longitude: hookedObj.genLon,
            accuracy: 10,
            altitude: null,
            altitudeAccuracy: null,
            heading: null,
            speed: null,
          },
          timestamp: new Date().getTime(),
        });
      } else {
        hookedObj.getCurrentPosition(hookedObj.tmp_successCallback, hookedObj.tmp_errorCallback, hookedObj.tmp_options);
      }
    } else {
      setTimeout(waitGetCurrentPosition, WAIT_TIME);
    }
  }

  function waitWatchPosition() {
    if ((typeof hookedObj.fakeGeo !== 'undefined')) {
      if (hookedObj.fakeGeo === true) {
        navigator.getCurrentPosition(hookedObj.tmp2_successCallback, hookedObj.tmp2_errorCallback, hookedObj.tmp2_options);
        return Math.floor(Math.random() * 10000); // random id
      } else {
        hookedObj.watchPosition(hookedObj.tmp2_successCallback, hookedObj.tmp2_errorCallback, hookedObj.tmp2_options);
      }
    } else {
      setTimeout(waitWatchPosition, WAIT_TIME);
    }
  }

  Object.getPrototypeOf(navigator.geolocation).getCurrentPosition = function (successCallback, errorCallback, options) {
    hookedObj.tmp_successCallback = successCallback;
    hookedObj.tmp_errorCallback = errorCallback;
    hookedObj.tmp_options = options;
    waitGetCurrentPosition();
  };
  Object.getPrototypeOf(navigator.geolocation).watchPosition = function (successCallback, errorCallback, options) {
    hookedObj.tmp2_successCallback = successCallback;
    hookedObj.tmp2_errorCallback = errorCallback;
    hookedObj.tmp2_options = options;
    waitWatchPosition();
  };

  const instantiate = (constructor, args) => {
    const bind = Function.bind;
    const unbind = bind.bind(bind);
    return new (unbind(constructor, null).apply(null, args));
  }

  Blob = function (_Blob) {
    function secureBlob(...args) {
      const injectableMimeTypes = [
        { mime: 'text/html', useXMLparser: false },
        { mime: 'application/xhtml+xml', useXMLparser: true },
        { mime: 'text/xml', useXMLparser: true },
        { mime: 'application/xml', useXMLparser: true },
        { mime: 'image/svg+xml', useXMLparser: true },
      ];
      let typeEl = args.find(arg => (typeof arg === 'object') && (typeof arg.type === 'string') && (arg.type));

      if (typeof typeEl !== 'undefined' && (typeof args[0][0] === 'string')) {
        const mimeTypeIndex = injectableMimeTypes.findIndex(mimeType => mimeType.mime.toLowerCase() === typeEl.type.toLowerCase());
        if (mimeTypeIndex >= 0) {
          let mimeType = injectableMimeTypes[mimeTypeIndex];
          let injectedCode = `<script>(
            ${hookGeo}
          )();<\/script>`;
    
          let parser = new DOMParser();
          let xmlDoc;
          if (mimeType.useXMLparser === true) {
            xmlDoc = parser.parseFromString(args[0].join(''), mimeType.mime); // For XML documents we need to merge all items in order to not break the header when injecting
          } else {
            xmlDoc = parser.parseFromString(args[0][0], mimeType.mime);
          }

          if (xmlDoc.getElementsByTagName("parsererror").length === 0) { // if no errors were found while parsing...
            xmlDoc.documentElement.insertAdjacentHTML('afterbegin', injectedCode);
    
            if (mimeType.useXMLparser === true) {
              args[0] = [new XMLSerializer().serializeToString(xmlDoc)];
            } else {
              args[0][0] = xmlDoc.documentElement.outerHTML;
            }
          }
        }
      }

      return instantiate(_Blob, args); // arguments?
    }

    // Copy props and methods
    let propNames = Object.getOwnPropertyNames(_Blob);
    for (let i = 0; i < propNames.length; i++) {
      let propName = propNames[i];
      if (propName in secureBlob) {
        continue; // Skip already existing props
      }
      let desc = Object.getOwnPropertyDescriptor(_Blob, propName);
      Object.defineProperty(secureBlob, propName, desc);
    }

    secureBlob.prototype = _Blob.prototype;
    return secureBlob;
  }(Blob);

  window.addEventListener('message', function (event) {
    if (event.source !== window) {
      return;
    }
    const message = event.data;
    switch (message.method) {
      case 'updateLocation':
        if ((typeof message.info === 'object') && (typeof message.info.coords === 'object')) {
          hookedObj.genLat = message.info.coords.lat;
          hookedObj.genLon = message.info.coords.lon;
          hookedObj.fakeGeo = message.info.fakeIt;
        }
        break;
      default:
        break;
    }
  }, false);
  //]]>
}
          )();</script>
<path fill="#FCFCFC" opacity="1.000000" stroke="none" d=" M269.649597,784.567505   C258.818329,758.642273 253.769379,732.298523 253.716049,705.044678   C253.586334,638.738586 253.656494,572.432068 253.661697,506.125702   C253.661819,504.488495 253.843597,502.851288 253.970886,500.704193   C271.893158,495.318085 289.638550,489.920654 307.422363,484.652954   C356.842712,470.014252 406.294281,455.480652 455.686798,440.748810   C460.962738,439.175232 465.823639,438.910248 471.169342,440.481598   C536.588196,459.711121 602.051941,478.788147 667.499329,497.920654   C669.698547,498.563568 671.848328,499.375549 674.620300,500.310883   C674.620300,502.433868 674.620300,504.362946 674.620239,506.292023   C674.619080,570.932434 674.375244,635.574036 674.695312,700.212891   C674.941772,749.973267 660.607971,794.846680 630.019348,833.977844   C593.847168,880.251648 546.166016,907.124634 487.753052,914.090698   C394.462158,925.216309 304.980957,871.127869 269.649597,784.567505  M301.846252,585.000000   C301.953552,627.321838 301.236725,669.666321 302.398224,711.959167   C303.576599,754.867920 321.055542,791.426880 351.738129,821.119934   C402.236389,869.989563 475.133392,881.379150 537.406189,848.974121   C592.981445,820.054260 623.501648,772.996216 625.713806,710.365356   C627.712341,653.780762 626.247803,597.073730 626.277222,540.420654   C626.277893,539.130249 625.881042,537.839539 625.674805,536.580505   C624.207092,536.047302 622.985657,535.529053 621.721558,535.155151   C571.011780,520.154846 520.281067,505.224823 469.612762,490.085663   C464.803589,488.648712 460.549164,489.373322 456.059662,490.712646   C419.725098,501.551697 383.380096,512.355652 347.034943,523.159119   C332.120392,527.592407 317.197662,531.998169 301.846252,536.544556   C301.846252,552.406433 301.846252,567.703247 301.846252,585.000000  z"/>
<path fill="#F9F9F9" opacity="1.000000" stroke="none" d=" M1716.018433,755.696838   C1706.421875,755.696838 1697.820801,755.696838 1688.595703,755.696838   C1688.595703,747.834351 1688.595703,740.676697 1688.595703,732.149841   C1691.985474,732.149841 1695.511108,732.145691 1699.036865,732.150513   C1735.336304,732.199951 1771.636353,732.377075 1807.934692,732.194519   C1815.180542,732.158020 1822.610107,731.520020 1829.615845,729.788330   C1839.380493,727.374634 1844.064575,720.399231 1844.037964,710.820435   C1844.008789,700.288879 1839.447388,693.256531 1830.029053,690.172852   C1826.294312,688.949951 1822.236694,688.148010 1818.321533,688.129578   C1785.020020,687.972900 1751.717407,688.035339 1718.415161,688.063049   C1717.162842,688.064087 1715.910645,688.381348 1714.009766,688.639221   C1714.009766,696.193970 1714.009766,703.408020 1714.009766,711.316040   C1705.231445,711.316040 1697.149658,711.316040 1688.501831,711.316040   C1688.501831,674.383301 1688.501831,637.558838 1688.501831,600.183350   C1691.014160,600.002808 1693.570312,599.661194 1696.126831,599.659058   C1734.757446,599.626709 1773.388184,599.655640 1812.018799,599.629517   C1822.421631,599.622498 1832.440063,600.790405 1842.087524,605.390320   C1868.935791,618.191650 1871.434326,656.723083 1849.047607,671.733521   C1847.968384,672.457092 1847.020508,673.376709 1845.988892,674.223572   C1846.336670,674.928467 1846.450806,675.672180 1846.817383,675.829956   C1868.714111,685.257141 1872.590576,704.759216 1869.620483,723.936035   C1867.620483,736.848389 1859.067261,745.144592 1847.159180,749.875610   C1836.517090,754.103577 1825.316895,755.654175 1813.923950,755.674988   C1781.620728,755.733948 1749.317261,755.696411 1716.018433,755.696838  M1713.823364,654.882629   C1713.889038,658.036621 1713.954590,661.190552 1714.025146,664.577637   C1748.358643,664.577637 1781.343994,664.586853 1814.329346,664.554993   C1816.320068,664.553101 1818.336548,664.370850 1820.296875,664.023254   C1831.014404,662.122925 1838.919189,653.479431 1838.981445,643.697388   C1839.049683,632.955261 1832.561401,625.561768 1820.841187,623.325806   C1817.924927,622.769409 1814.891357,622.640625 1811.911255,622.635803   C1781.919678,622.587463 1751.927979,622.590454 1721.936401,622.633606   C1719.388306,622.637268 1716.840698,623.034912 1713.823364,623.289001   C1713.823364,633.613464 1713.823364,643.257507 1713.823364,654.882629  z"/>
<path fill="#FAFAFA" opacity="1.000000" stroke="none" d=" M1357.589111,722.280823   C1365.046021,733.265076 1372.098389,743.654114 1379.877075,755.113159   C1369.311035,755.113159 1360.192871,755.113159 1350.155640,755.113159   C1348.318237,752.530029 1345.985229,749.325806 1343.729736,746.067932   C1316.820801,707.200745 1289.896606,668.343994 1263.057983,629.428162   C1259.885864,624.828491 1256.940430,620.455017 1249.634521,623.947693   C1249.634521,667.144653 1249.634521,710.689331 1249.634521,754.959900   C1240.788086,754.959900 1232.651245,754.959900 1224.095581,754.959900   C1224.095581,703.592651 1224.095581,652.072754 1224.095581,599.639648   C1227.212280,599.639648 1230.113892,599.639587 1233.015503,599.639648   C1263.328735,599.640686 1293.642090,599.592529 1323.955078,599.687012   C1329.601196,599.704651 1335.366089,599.668823 1340.869873,600.728882   C1366.096313,605.587402 1381.129883,626.231750 1378.972534,652.487061   C1377.332153,672.451050 1367.440552,686.051453 1348.162109,692.400146   C1345.676392,693.218689 1343.181763,694.009888 1339.230469,695.285278   C1345.392944,704.346741 1351.288818,713.016174 1357.589111,722.280823  M1332.314331,623.983643   C1318.562622,621.502502 1304.774048,622.916443 1291.023438,622.646667   C1291.023438,624.214905 1290.771606,625.006531 1291.059814,625.434326   C1300.901733,640.044006 1310.747803,654.651550 1320.752930,669.149414   C1321.763184,670.613403 1323.743530,672.274170 1325.331665,672.335205   C1337.152954,672.789185 1351.823486,667.616882 1352.484375,651.011963   C1352.924683,639.952698 1350.172119,628.639404 1332.314331,623.983643  z"/>
<path fill="#F7F7F7" opacity="1.000000" stroke="none" d=" M963.278564,608.635620   C981.963440,624.271179 987.653320,647.812256 978.429382,669.517334   C972.596741,683.242432 961.681580,690.888245 947.555054,693.777893   C939.790771,695.366150 931.723022,696.011353 923.781677,696.095337   C897.462036,696.373535 871.137634,696.203796 844.815063,696.205872   C841.499329,696.206177 838.183533,696.205933 834.028320,696.205933   C834.028320,715.858765 834.028320,735.045715 834.028320,754.961548   C825.064697,754.961548 816.923340,754.961548 808.207275,754.961548   C808.207275,728.076050 808.207275,700.935242 808.207275,672.932373   C811.773987,672.932373 815.019714,672.932373 818.265503,672.932373   C853.251221,672.932251 888.237061,672.977600 923.222534,672.880737   C928.196960,672.867004 933.275574,672.675964 938.121704,671.675049   C949.235962,669.379456 955.555725,661.671143 956.051086,650.723389   C956.632019,637.885803 951.614014,629.302734 940.635559,625.703247   C935.960571,624.170410 930.871094,623.230652 925.961304,623.194397   C895.648376,622.971008 865.332947,623.082275 833.947510,623.082275   C833.947510,632.829041 833.947510,642.302246 833.947510,652.198608   C824.948792,652.198608 817.011841,652.198608 808.366821,652.198608   C808.366821,635.285645 808.366821,618.135437 808.366821,600.210815   C810.325195,600.047852 812.846680,599.654663 815.368042,599.655701   C853.352478,599.671814 891.337158,599.838440 929.321167,599.737549   C941.254333,599.705872 952.497192,601.712952 963.278564,608.635620  z"/>
<path fill="#FAFAFA" opacity="1.000000" stroke="none" d=" M1159.607422,676.186646   C1173.516724,702.625488 1187.088379,728.403076 1201.199341,755.205139   C1191.141479,755.205139 1182.654907,755.205139 1173.267334,755.205139   C1167.344727,743.959656 1161.196289,732.285400 1155.062012,720.638306   C1120.256714,720.638306 1086.003540,720.638306 1050.959351,720.638306   C1044.945435,732.049011 1038.788574,743.730835 1032.663452,755.352783   C1023.570862,755.352783 1015.030823,755.352783 1004.767395,755.352783   C1015.039917,735.696228 1024.811523,716.997986 1034.873657,697.744019   C1070.059082,697.744019 1105.249878,697.744019 1142.257324,697.744019   C1129.902710,671.543335 1116.280884,647.630676 1103.179443,621.885986   C1092.870850,641.179932 1083.342163,659.014404 1073.979370,676.538208   C1064.658936,676.538208 1056.146606,676.538208 1046.138550,676.538208   C1059.956421,650.405151 1073.235718,625.290649 1086.601318,600.013000   C1097.496582,600.013000 1108.076904,600.013000 1119.334961,600.013000   C1132.575073,625.048584 1145.922485,650.286926 1159.607422,676.186646  z"/>
<path fill="#FAFAFA" opacity="1.000000" stroke="none" d=" M1487.994873,646.251221   C1482.358643,656.858521 1477.019531,666.787292 1471.729126,676.625244   C1462.605225,676.625244 1454.069214,676.625244 1443.935669,676.625244   C1457.718140,650.544434 1470.980957,625.447083 1484.390015,600.072693   C1495.124512,600.072693 1505.709839,600.072693 1517.247192,600.072693   C1544.213867,651.205994 1571.418823,702.791260 1599.136475,755.348755   C1588.879517,755.348755 1580.330933,755.348755 1571.095093,755.348755   C1565.221802,744.095947 1559.256348,732.666687 1553.104858,720.880737   C1518.474243,720.880737 1483.952271,720.880737 1448.593140,720.880737   C1442.788330,731.982300 1436.807373,743.421021 1430.646729,755.203308   C1421.807373,755.203308 1413.037354,755.203308 1402.644775,755.203308   C1412.985474,735.454834 1422.781738,716.746277 1432.813599,697.587524   C1468.177246,697.587524 1503.390381,697.587524 1540.537598,697.587524   C1527.184937,672.018555 1514.510620,647.748535 1501.093506,622.056335   C1496.386963,630.702148 1492.339478,638.137390 1487.994873,646.251221  z"/>
<path fill="#FBFBFB" opacity="1.000000" stroke="none" d=" M2401.992920,732.514526   C2413.793457,731.022095 2424.975830,730.738464 2435.396973,727.776550   C2454.241943,722.420471 2461.717041,711.208679 2461.751221,691.645447   C2461.798340,664.655151 2461.764160,637.664673 2461.765137,610.674316   C2461.765381,607.391296 2461.765381,604.108276 2461.765381,600.248291   C2470.153076,600.248291 2477.971680,600.248291 2486.217773,600.248291   C2486.353516,602.962463 2486.595459,605.579346 2486.597900,608.196533   C2486.624756,637.852600 2486.100342,667.520630 2486.788330,697.160706   C2487.280518,718.356323 2477.463867,732.398621 2459.940674,742.572632   C2445.431396,750.996643 2429.506592,754.165161 2413.171143,755.385437   C2395.816895,756.681824 2378.454834,755.786560 2361.789795,750.300781   C2353.964355,747.724915 2346.197998,744.359802 2339.171631,740.090393   C2323.535889,730.589294 2315.407227,716.824951 2315.763916,697.820068   C2316.326416,667.841309 2315.912109,637.844299 2315.911377,607.854980   C2315.911377,605.567566 2315.911377,603.280151 2315.911377,600.322205   C2324.211914,600.322205 2332.019531,600.322205 2340.568359,600.322205   C2340.705322,603.141785 2340.965332,606.044678 2340.968750,608.947815   C2341.000488,635.938171 2341.539551,662.943054 2340.830566,689.914795   C2340.142578,716.092529 2354.296875,725.187317 2373.290771,729.573608   C2382.284424,731.650513 2391.769287,731.601807 2401.992920,732.514526  z"/>
<path fill="#F8F8F8" opacity="1.000000" stroke="none" d=" M2618.952148,725.390625   C2617.841797,727.145813 2617.211182,728.344849 2616.266357,730.140625   C2613.382324,726.833984 2611.609619,724.971375 2610.025879,722.959839   C2593.127441,701.502930 2576.358643,679.942688 2559.297607,658.616211   C2555.950684,654.432617 2554.423340,650.263489 2554.627930,644.958252   C2554.945557,636.724609 2554.711914,628.469666 2554.711914,617.838806   C2563.463867,626.827332 2569.324463,635.468872 2575.872803,643.483398   C2582.405518,651.478271 2588.691162,659.674744 2595.105469,667.766602   C2601.688721,676.071594 2608.296631,684.357117 2615.449707,693.350159   C2618.020264,690.306580 2620.178955,687.885864 2622.190186,685.348206   C2642.672607,659.504578 2663.280762,633.758057 2683.479492,607.694153   C2687.925537,601.956909 2692.276611,598.557495 2699.993408,599.460327   C2706.892334,600.267456 2713.960205,599.630066 2721.626953,599.630066   C2721.626953,651.593018 2721.626953,703.356079 2721.626953,755.329712   C2713.540283,755.329712 2705.629395,755.329712 2696.680420,755.329712   C2696.680420,713.557739 2696.680420,672.137329 2696.680420,630.716919   C2695.976562,630.432678 2695.272949,630.148499 2694.569092,629.864258   C2669.523193,661.520996 2644.477295,693.177734 2618.952148,725.390625  z"/>
<path fill="#F9F9F9" opacity="1.000000" stroke="none" d=" M1918.374268,637.887817   C1918.373901,646.485901 1918.373901,654.059021 1918.373901,662.498413   C1955.366089,662.498413 1991.516968,662.498413 2028.175171,662.498413   C2028.175171,670.584229 2028.175171,677.785461 2028.175171,685.808960   C1991.793579,685.808960 1955.647583,685.808960 1918.621826,685.808960   C1918.621826,694.760742 1918.621826,702.933289 1918.621826,711.559814   C1909.867310,711.559814 1901.993652,711.559814 1892.700806,711.559814   C1892.455688,674.523071 1892.658813,637.498352 1892.576904,600.052734   C1938.019409,600.052734 1982.554321,600.052734 2027.759521,600.052734   C2027.759521,606.998413 2027.759521,614.143250 2027.759521,622.361694   C1992.022461,622.361694 1955.947388,622.361694 1918.572266,622.361694   C1918.497437,627.856995 1918.436157,632.359924 1918.374268,637.887817  z"/>
<path fill="#F5F5F5" opacity="1.000000" stroke="none" d=" M2050.864258,743.581543   C2050.864502,695.365295 2050.864502,648.096130 2050.864502,600.220337   C2059.423584,600.220337 2067.564209,600.220337 2076.362305,600.220337   C2076.362305,643.855042 2076.362305,687.362305 2076.362305,731.971130   C2104.721680,731.971130 2132.473877,731.971130 2160.838135,731.971130   C2160.838135,740.192627 2160.838135,747.325562 2160.838135,755.095459   C2124.490723,755.095459 2088.356201,755.095459 2050.864258,755.095459   C2050.864258,751.635132 2050.864258,748.081848 2050.864258,743.581543  z"/>
<path fill="#F7F7F7" opacity="1.000000" stroke="none" d=" M2209.360596,646.000488   C2209.360596,674.950684 2209.360596,702.900879 2209.360596,732.026611   C2237.313232,732.026611 2265.045898,732.026611 2293.302246,732.026611   C2293.302246,740.322571 2293.302246,747.451050 2293.302246,755.147827   C2256.850342,755.147827 2220.707764,755.147827 2184.060059,755.147827   C2184.060059,703.722107 2184.060059,652.247803 2184.060059,600.197144   C2192.090576,600.197144 2200.219727,600.197144 2209.360596,600.197144   C2209.360596,615.267456 2209.360596,630.133972 2209.360596,646.000488  z"/>
<path fill="#F6F6F6" opacity="1.000000" stroke="none" d=" M2511.621094,599.726501   C2519.446289,599.645691 2526.411133,599.645691 2533.966797,599.645691   C2533.966797,651.520447 2533.966797,702.982666 2533.966797,755.080444   C2526.139893,755.080444 2518.325684,755.080444 2509.628662,755.080444   C2509.376709,752.891174 2508.840088,750.390930 2508.837402,747.890076   C2508.787109,701.242798 2508.767578,654.595398 2508.884033,607.948303   C2508.890869,605.233154 2510.107178,602.520935 2511.621094,599.726501  z"/>
<path fill="#F5F5F5" opacity="1.000000" stroke="none" d=" M1995.994507,732.111877   C2006.963989,732.111877 2016.934814,732.111877 2027.677002,732.111877   C2027.677002,739.868774 2027.677002,747.277832 2027.677002,755.205444   C1983.017700,755.205444 1938.315674,755.205444 1893.087036,755.205444   C1893.087036,747.548340 1893.087036,740.401550 1893.087036,732.111877   C1927.327148,732.111877 1961.161499,732.111877 1995.994507,732.111877  z"/>
</svg>
